<svg width="40" height="41" viewBox="0 0 40 41" fill="none" xmlns="http://www.w3.org/2000/svg">
<g clip-path="url(#clip0_1_523)">
<mask id="path-1-inside-1_1_523" fill="white">
<path d="M34.9609 33.8865C36.237 34.5115 37.2917 35.3904 38.125 36.5232C38.9583 37.656 39.4857 38.932 39.707 40.3513H37.5586C37.4154 39.6091 37.1484 38.919 36.7578 38.281C36.3672 37.643 35.8919 37.0961 35.332 36.6404C34.7721 36.1847 34.1406 35.8201 33.4375 35.5466C32.7344 35.2732 32.0052 35.143 31.25 35.156C30.4818 35.156 29.7526 35.2862 29.0625 35.5466C28.3724 35.807 27.7409 36.1651 27.168 36.6208C26.5951 37.0766 26.1198 37.63 25.7422 38.281C25.3646 38.932 25.0977 39.6222 24.9414 40.3513H22.793C23.0013 38.9451 23.5221 37.6755 24.3555 36.5427C25.1888 35.4099 26.25 34.5245 27.5391 33.8865C26.7969 33.3005 26.224 32.5909 25.8203 31.7576C25.4167 30.9242 25.2083 30.0388 25.1953 29.1013C25.1953 28.5154 25.2734 27.949 25.4297 27.4021C25.5859 26.8552 25.8203 26.3409 26.1328 25.8591C26.4453 25.3774 26.8164 24.9477 27.2461 24.5701C27.6758 24.1925 28.1576 23.8735 28.6914 23.613C28.3398 23.1052 27.9362 22.656 27.4805 22.2654C27.0247 21.8748 26.5299 21.5297 25.9961 21.2302C25.4622 20.9307 24.9023 20.7159 24.3164 20.5857C23.7305 20.4555 23.125 20.3774 22.5 20.3513C21.4583 20.3513 20.4622 20.5531 19.5117 20.9568C18.5612 21.3604 17.7344 21.9529 17.0312 22.7341C17.3438 23.5805 17.5 24.4529 17.5 25.3513C17.5 26.5492 17.2331 27.6755 16.6992 28.7302C16.1654 29.7849 15.4167 30.6703 14.4531 31.3865C15.2995 31.8162 16.0612 32.3435 16.7383 32.9685C17.4154 33.5935 18.0013 34.2966 18.4961 35.0779C18.9909 35.8591 19.362 36.6925 19.6094 37.5779C19.8568 38.4633 19.987 39.3878 20 40.3513H17.5C17.5 39.3227 17.3047 38.3526 16.9141 37.4412C16.5234 36.5297 15.9896 35.7354 15.3125 35.0583C14.6354 34.3813 13.8346 33.8409 12.9102 33.4373C11.9857 33.0336 11.0156 32.8383 10 32.8513C8.95833 32.8513 7.98828 33.0466 7.08984 33.4373C6.19141 33.8279 5.39714 34.3617 4.70703 35.0388C4.01693 35.7159 3.47656 36.5167 3.08594 37.4412C2.69531 38.3656 2.5 39.3357 2.5 40.3513H0C0 39.4008 0.130208 38.4828 0.390625 37.5974C0.651042 36.712 1.02214 35.8787 1.50391 35.0974C1.98568 34.3162 2.5651 33.613 3.24219 32.988C3.91927 32.363 4.6875 31.8292 5.54688 31.3865C4.58333 30.6703 3.83464 29.7849 3.30078 28.7302C2.76693 27.6755 2.5 26.5492 2.5 25.3513C2.5 24.3227 2.69531 23.3526 3.08594 22.4412C3.47656 21.5297 4.01042 20.7354 4.6875 20.0583C5.36458 19.3813 6.15885 18.8409 7.07031 18.4373C7.98177 18.0336 8.95833 17.8383 10 17.8513C11.1068 17.8513 12.1549 18.0857 13.1445 18.5544C14.1341 19.0232 14.9935 19.6742 15.7227 20.5076C16.0612 20.182 16.4258 19.8891 16.8164 19.6287C17.207 19.3682 17.6172 19.1208 18.0469 18.8865C17.0833 18.1703 16.3346 17.2849 15.8008 16.2302C15.2669 15.1755 15 14.0492 15 12.8513C15 11.8227 15.1953 10.8526 15.5859 9.94116C15.9766 9.0297 16.5104 8.23543 17.1875 7.55835C17.8646 6.88127 18.6589 6.3409 19.5703 5.93726C20.4818 5.53361 21.4583 5.3383 22.5 5.35132C23.5286 5.35132 24.4987 5.54663 25.4102 5.93726C26.3216 6.32788 27.1159 6.86173 27.793 7.53882C28.4701 8.2159 29.0104 9.01668 29.4141 9.94116C29.8177 10.8656 30.013 11.8357 30 12.8513C30 14.0492 29.7331 15.1755 29.1992 16.2302C28.6654 17.2849 27.9167 18.1703 26.9531 18.8865C27.8646 19.3682 28.6849 19.9542 29.4141 20.6443C30.1432 21.3344 30.7617 22.1352 31.2695 23.0466C32.1029 23.0466 32.8841 23.2029 33.6133 23.5154C34.3424 23.8279 34.987 24.2641 35.5469 24.824C36.1068 25.3839 36.5365 26.0219 36.8359 26.738C37.1354 27.4542 37.2917 28.2419 37.3047 29.1013C37.3047 30.0388 37.1029 30.9242 36.6992 31.7576C36.2956 32.5909 35.7161 33.3005 34.9609 33.8865ZM10 30.3513C10.6901 30.3513 11.3346 30.2211 11.9336 29.9607C12.5326 29.7003 13.0664 29.3422 13.5352 28.8865C14.0039 28.4307 14.362 27.9034 14.6094 27.3044C14.8568 26.7055 14.987 26.0544 15 25.3513C15 24.6612 14.8698 24.0167 14.6094 23.4177C14.349 22.8188 13.9909 22.2849 13.5352 21.8162C13.0794 21.3474 12.5521 20.9893 11.9531 20.7419C11.3542 20.4945 10.7031 20.3643 10 20.3513C9.3099 20.3513 8.66536 20.4815 8.06641 20.7419C7.46745 21.0024 6.93359 21.3604 6.46484 21.8162C5.99609 22.2719 5.63802 22.7992 5.39062 23.3982C5.14323 23.9972 5.01302 24.6482 5 25.3513C5 26.0414 5.13021 26.686 5.39062 27.2849C5.65104 27.8839 6.00911 28.4177 6.46484 28.8865C6.92057 29.3552 7.44792 29.7133 8.04688 29.9607C8.64583 30.2081 9.29688 30.3383 10 30.3513ZM17.5 12.8513C17.5 13.5414 17.6302 14.186 17.8906 14.7849C18.151 15.3839 18.5091 15.9177 18.9648 16.3865C19.4206 16.8552 19.9479 17.2133 20.5469 17.4607C21.1458 17.7081 21.7969 17.8383 22.5 17.8513C23.1901 17.8513 23.8346 17.7211 24.4336 17.4607C25.0326 17.2003 25.5664 16.8422 26.0352 16.3865C26.5039 15.9307 26.862 15.4034 27.1094 14.8044C27.3568 14.2055 27.487 13.5544 27.5 12.8513C27.5 12.1612 27.3698 11.5167 27.1094 10.9177C26.849 10.3188 26.4909 9.78491 26.0352 9.31616C25.5794 8.84741 25.0521 8.48934 24.4531 8.24194C23.8542 7.99455 23.2031 7.86434 22.5 7.85132C21.8099 7.85132 21.1654 7.98153 20.5664 8.24194C19.9674 8.50236 19.4336 8.86043 18.9648 9.31616C18.4961 9.77189 18.138 10.2992 17.8906 10.8982C17.6432 11.4972 17.513 12.1482 17.5 12.8513ZM31.25 25.156C30.7031 25.156 30.1953 25.2602 29.7266 25.4685C29.2578 25.6768 28.8411 25.9568 28.4766 26.3083C28.112 26.6599 27.8255 27.0766 27.6172 27.5583C27.4089 28.0401 27.3047 28.5544 27.3047 29.1013C27.3047 29.6482 27.4089 30.156 27.6172 30.6248C27.8255 31.0935 28.1055 31.5102 28.457 31.8748C28.8086 32.2393 29.2253 32.5258 29.707 32.7341C30.1888 32.9425 30.7031 33.0466 31.25 33.0466C31.7969 33.0466 32.3047 32.9425 32.7734 32.7341C33.2422 32.5258 33.6589 32.2458 34.0234 31.8943C34.388 31.5427 34.6745 31.1261 34.8828 30.6443C35.0911 30.1625 35.1953 29.6482 35.1953 29.1013C35.1953 28.5544 35.0911 28.0466 34.8828 27.5779C34.6745 27.1091 34.3945 26.6925 34.043 26.3279C33.6914 25.9633 33.2747 25.6768 32.793 25.4685C32.3112 25.2602 31.7969 25.156 31.25 25.156Z"/>
</mask>
<path d="M34.9609 33.8865C36.237 34.5115 37.2917 35.3904 38.125 36.5232C38.9583 37.656 39.4857 38.932 39.707 40.3513H37.5586C37.4154 39.6091 37.1484 38.919 36.7578 38.281C36.3672 37.643 35.8919 37.0961 35.332 36.6404C34.7721 36.1847 34.1406 35.8201 33.4375 35.5466C32.7344 35.2732 32.0052 35.143 31.25 35.156C30.4818 35.156 29.7526 35.2862 29.0625 35.5466C28.3724 35.807 27.7409 36.1651 27.168 36.6208C26.5951 37.0766 26.1198 37.63 25.7422 38.281C25.3646 38.932 25.0977 39.6222 24.9414 40.3513H22.793C23.0013 38.9451 23.5221 37.6755 24.3555 36.5427C25.1888 35.4099 26.25 34.5245 27.5391 33.8865C26.7969 33.3005 26.224 32.5909 25.8203 31.7576C25.4167 30.9242 25.2083 30.0388 25.1953 29.1013C25.1953 28.5154 25.2734 27.949 25.4297 27.4021C25.5859 26.8552 25.8203 26.3409 26.1328 25.8591C26.4453 25.3774 26.8164 24.9477 27.2461 24.5701C27.6758 24.1925 28.1576 23.8735 28.6914 23.613C28.3398 23.1052 27.9362 22.656 27.4805 22.2654C27.0247 21.8748 26.5299 21.5297 25.9961 21.2302C25.4622 20.9307 24.9023 20.7159 24.3164 20.5857C23.7305 20.4555 23.125 20.3774 22.5 20.3513C21.4583 20.3513 20.4622 20.5531 19.5117 20.9568C18.5612 21.3604 17.7344 21.9529 17.0312 22.7341C17.3438 23.5805 17.5 24.4529 17.5 25.3513C17.5 26.5492 17.2331 27.6755 16.6992 28.7302C16.1654 29.7849 15.4167 30.6703 14.4531 31.3865C15.2995 31.8162 16.0612 32.3435 16.7383 32.9685C17.4154 33.5935 18.0013 34.2966 18.4961 35.0779C18.9909 35.8591 19.362 36.6925 19.6094 37.5779C19.8568 38.4633 19.987 39.3878 20 40.3513H17.5C17.5 39.3227 17.3047 38.3526 16.9141 37.4412C16.5234 36.5297 15.9896 35.7354 15.3125 35.0583C14.6354 34.3813 13.8346 33.8409 12.9102 33.4373C11.9857 33.0336 11.0156 32.8383 10 32.8513C8.95833 32.8513 7.98828 33.0466 7.08984 33.4373C6.19141 33.8279 5.39714 34.3617 4.70703 35.0388C4.01693 35.7159 3.47656 36.5167 3.08594 37.4412C2.69531 38.3656 2.5 39.3357 2.5 40.3513H0C0 39.4008 0.130208 38.4828 0.390625 37.5974C0.651042 36.712 1.02214 35.8787 1.50391 35.0974C1.98568 34.3162 2.5651 33.613 3.24219 32.988C3.91927 32.363 4.6875 31.8292 5.54688 31.3865C4.58333 30.6703 3.83464 29.7849 3.30078 28.7302C2.76693 27.6755 2.5 26.5492 2.5 25.3513C2.5 24.3227 2.69531 23.3526 3.08594 22.4412C3.47656 21.5297 4.01042 20.7354 4.6875 20.0583C5.36458 19.3813 6.15885 18.8409 7.07031 18.4373C7.98177 18.0336 8.95833 17.8383 10 17.8513C11.1068 17.8513 12.1549 18.0857 13.1445 18.5544C14.1341 19.0232 14.9935 19.6742 15.7227 20.5076C16.0612 20.182 16.4258 19.8891 16.8164 19.6287C17.207 19.3682 17.6172 19.1208 18.0469 18.8865C17.0833 18.1703 16.3346 17.2849 15.8008 16.2302C15.2669 15.1755 15 14.0492 15 12.8513C15 11.8227 15.1953 10.8526 15.5859 9.94116C15.9766 9.0297 16.5104 8.23543 17.1875 7.55835C17.8646 6.88127 18.6589 6.3409 19.5703 5.93726C20.4818 5.53361 21.4583 5.3383 22.5 5.35132C23.5286 5.35132 24.4987 5.54663 25.4102 5.93726C26.3216 6.32788 27.1159 6.86173 27.793 7.53882C28.4701 8.2159 29.0104 9.01668 29.4141 9.94116C29.8177 10.8656 30.013 11.8357 30 12.8513C30 14.0492 29.7331 15.1755 29.1992 16.2302C28.6654 17.2849 27.9167 18.1703 26.9531 18.8865C27.8646 19.3682 28.6849 19.9542 29.4141 20.6443C30.1432 21.3344 30.7617 22.1352 31.2695 23.0466C32.1029 23.0466 32.8841 23.2029 33.6133 23.5154C34.3424 23.8279 34.987 24.2641 35.5469 24.824C36.1068 25.3839 36.5365 26.0219 36.8359 26.738C37.1354 27.4542 37.2917 28.2419 37.3047 29.1013C37.3047 30.0388 37.1029 30.9242 36.6992 31.7576C36.2956 32.5909 35.7161 33.3005 34.9609 33.8865ZM10 30.3513C10.6901 30.3513 11.3346 30.2211 11.9336 29.9607C12.5326 29.7003 13.0664 29.3422 13.5352 28.8865C14.0039 28.4307 14.362 27.9034 14.6094 27.3044C14.8568 26.7055 14.987 26.0544 15 25.3513C15 24.6612 14.8698 24.0167 14.6094 23.4177C14.349 22.8188 13.9909 22.2849 13.5352 21.8162C13.0794 21.3474 12.5521 20.9893 11.9531 20.7419C11.3542 20.4945 10.7031 20.3643 10 20.3513C9.3099 20.3513 8.66536 20.4815 8.06641 20.7419C7.46745 21.0024 6.93359 21.3604 6.46484 21.8162C5.99609 22.2719 5.63802 22.7992 5.39062 23.3982C5.14323 23.9972 5.01302 24.6482 5 25.3513C5 26.0414 5.13021 26.686 5.39062 27.2849C5.65104 27.8839 6.00911 28.4177 6.46484 28.8865C6.92057 29.3552 7.44792 29.7133 8.04688 29.9607C8.64583 30.2081 9.29688 30.3383 10 30.3513ZM17.5 12.8513C17.5 13.5414 17.6302 14.186 17.8906 14.7849C18.151 15.3839 18.5091 15.9177 18.9648 16.3865C19.4206 16.8552 19.9479 17.2133 20.5469 17.4607C21.1458 17.7081 21.7969 17.8383 22.5 17.8513C23.1901 17.8513 23.8346 17.7211 24.4336 17.4607C25.0326 17.2003 25.5664 16.8422 26.0352 16.3865C26.5039 15.9307 26.862 15.4034 27.1094 14.8044C27.3568 14.2055 27.487 13.5544 27.5 12.8513C27.5 12.1612 27.3698 11.5167 27.1094 10.9177C26.849 10.3188 26.4909 9.78491 26.0352 9.31616C25.5794 8.84741 25.0521 8.48934 24.4531 8.24194C23.8542 7.99455 23.2031 7.86434 22.5 7.85132C21.8099 7.85132 21.1654 7.98153 20.5664 8.24194C19.9674 8.50236 19.4336 8.86043 18.9648 9.31616C18.4961 9.77189 18.138 10.2992 17.8906 10.8982C17.6432 11.4972 17.513 12.1482 17.5 12.8513ZM31.25 25.156C30.7031 25.156 30.1953 25.2602 29.7266 25.4685C29.2578 25.6768 28.8411 25.9568 28.4766 26.3083C28.112 26.6599 27.8255 27.0766 27.6172 27.5583C27.4089 28.0401 27.3047 28.5544 27.3047 29.1013C27.3047 29.6482 27.4089 30.156 27.6172 30.6248C27.8255 31.0935 28.1055 31.5102 28.457 31.8748C28.8086 32.2393 29.2253 32.5258 29.707 32.7341C30.1888 32.9425 30.7031 33.0466 31.25 33.0466C31.7969 33.0466 32.3047 32.9425 32.7734 32.7341C33.2422 32.5258 33.6589 32.2458 34.0234 31.8943C34.388 31.5427 34.6745 31.1261 34.8828 30.6443C35.0911 30.1625 35.1953 29.6482 35.1953 29.1013C35.1953 28.5544 35.0911 28.0466 34.8828 27.5779C34.6745 27.1091 34.3945 26.6925 34.043 26.3279C33.6914 25.9633 33.2747 25.6768 32.793 25.4685C32.3112 25.2602 31.7969 25.156 31.25 25.156Z" fill="#CE5425" stroke="#CE5425" stroke-width="0.0390625" mask="url(#path-1-inside-1_1_523)"/>
</g>
<defs>
<clipPath id="clip0_1_523">
<rect width="40" height="40" fill="white" transform="translate(0 0.351318)"/>
</clipPath>
</defs>
</svg>
