<svg width="40" height="41" viewBox="0 0 40 41" fill="none" xmlns="http://www.w3.org/2000/svg">
<path d="M35 6.35132V34.3513C35 34.6165 34.8946 34.8709 34.7071 35.0584C34.5196 35.246 34.2652 35.3513 34 35.3513H6C5.73478 35.3513 5.48043 35.246 5.29289 35.0584C5.10536 34.8709 5 34.6165 5 34.3513V6.35132C5 6.0861 5.10536 5.83175 5.29289 5.64421C5.48043 5.45668 5.73478 5.35132 6 5.35132H34C34.2652 5.35132 34.5196 5.45668 34.7071 5.64421C34.8946 5.83175 35 6.0861 35 6.35132Z" stroke="#CE5425" stroke-width="1.5" stroke-linecap="round" stroke-linejoin="round"/>
<path d="M13.3334 10.3513C13.3334 10.3513 9.16669 15.3513 13.3334 20.3513C17.5 25.3513 13.3334 30.3513 13.3334 30.3513M20 10.3513C20 10.3513 15.8334 15.3513 20 20.3513C24.1667 25.3513 20 30.3513 20 30.3513M26.6667 10.3513C26.6667 10.3513 22.5 15.3513 26.6667 20.3513C30.8334 25.3513 26.6667 30.3513 26.6667 30.3513" stroke="#CE5425" stroke-width="1.5" stroke-linecap="round" stroke-linejoin="round"/>
</svg>
