<svg width="40" height="41" viewBox="0 0 40 41" fill="none" xmlns="http://www.w3.org/2000/svg">
<path d="M19.9991 29.7614C20.5885 29.7623 21.0675 29.9605 21.4669 30.359C21.8655 30.7568 22.0636 31.2349 22.0636 31.8248C22.0635 32.4147 21.8658 32.8936 21.4669 33.2926C21.0677 33.6919 20.5888 33.8893 20.0001 33.8893C19.4114 33.8893 18.9326 33.6919 18.5333 33.2926C18.1342 32.8934 17.9366 32.4145 17.9366 31.8258C17.9368 31.2372 18.1348 30.7585 18.5343 30.358C18.9334 29.958 19.4111 29.7605 19.9991 29.7614ZM20.005 20.0826C22.1297 20.0837 24.1001 20.483 25.921 21.275C27.5971 22.0041 29.0916 22.9905 30.4083 24.234L29.4093 25.234C28.2258 24.131 26.877 23.2522 25.3644 22.6002C23.6881 21.8777 21.8983 21.5182 20.0001 21.5182C18.102 21.5182 16.3122 21.8777 14.6359 22.6002C13.1239 23.2519 11.775 24.1298 10.5919 25.2321L9.58899 24.2194C10.9064 22.9816 12.4038 21.9987 14.0841 21.2701C15.9085 20.4791 17.8803 20.0816 20.005 20.0826ZM19.9991 10.0846C23.56 10.0879 26.8519 10.7532 29.88 12.0748C32.7626 13.333 35.2989 15.0255 37.4943 17.151L36.4952 18.1481C34.3933 16.1304 31.9808 14.5375 29.2599 13.3717C26.3758 12.136 23.2875 11.5193 20.0001 11.5182C16.7126 11.5171 13.6246 12.1336 10.7413 13.3717C8.02142 14.5397 5.60787 16.1322 3.50403 18.1481L2.505 17.149C4.70042 15.0263 7.23748 13.3333 10.1202 12.0709C13.1478 10.7451 16.439 10.0814 19.9991 10.0846Z" fill="#CE5425" stroke="#CE5425"/>
</svg>
