<svg width="40" height="41" viewBox="0 0 40 41" fill="none" xmlns="http://www.w3.org/2000/svg">
<path d="M10.875 2.85132H16.2412C16.6409 2.85132 16.9431 2.97795 17.1855 3.22144C17.4289 3.46585 17.5555 3.76998 17.5566 4.17065V13.8855H31.9893C32.8916 13.8856 33.623 14.1996 34.2188 14.8328C34.8213 15.473 35.125 16.2491 35.125 17.1921V22.2546C35.125 23.2318 34.8188 24.0112 34.2227 24.6306C33.6256 25.2508 32.8919 25.5616 31.9873 25.5642H27.25V35.0642L27.957 34.7429C28.7299 34.392 29.4621 33.9886 30.1533 33.533C30.8371 33.0822 31.4834 32.5751 32.0938 32.0144L32.0947 32.0154C32.2722 31.8701 32.444 31.8072 32.6211 31.8015L32.6221 31.8025C32.7718 31.8003 32.917 31.8514 33.0742 32.0076C33.2323 32.1674 33.2658 32.2985 33.252 32.4246C33.2341 32.5871 33.1573 32.7491 32.9775 32.9177C31.2297 34.3649 29.3273 35.517 27.2686 36.3748L26.8535 36.5427C24.6408 37.4147 22.3158 37.8513 19.875 37.8513C17.4627 37.8513 15.1538 37.431 12.9453 36.5906C10.7373 35.7503 8.71722 34.5638 6.88379 33.03C6.69413 32.8586 6.5861 32.6662 6.54199 32.4431C6.50929 32.2774 6.54346 32.1536 6.67676 32.0203C6.83835 31.8587 6.99152 31.8037 7.15527 31.8083C7.33722 31.8136 7.51764 31.8823 7.70703 32.0535V32.0525C8.31372 32.6213 8.95496 33.1272 9.63184 33.5681C10.3101 34.0104 11.0319 34.4021 11.7959 34.7439L12.5 35.0593V25.5662H7.76074C6.85529 25.5661 6.12234 25.2563 5.52734 24.6355C4.93223 24.0144 4.62638 23.234 4.625 22.2566V9.40308C4.625 7.68617 5.16176 6.22489 6.2373 4.99585L6.45898 4.75366C7.68193 3.47919 9.14479 2.85132 10.875 2.85132ZM13.75 35.5652L14.1074 35.6716C14.8139 35.8815 15.5244 36.0596 16.2383 36.2068L16.9531 36.3435C17.9222 36.515 18.8962 36.6013 19.875 36.6013C20.8565 36.6013 21.8307 36.5165 22.7969 36.3464H22.7979C23.7525 36.1766 24.7009 35.9514 25.6426 35.6716L26 35.5652V25.5623H13.75V35.5652ZM10.875 4.10132C9.49317 4.10132 8.30375 4.63249 7.33301 5.66772C6.36315 6.70206 5.87674 7.957 5.875 9.40405V22.2546C5.875 22.8335 6.03032 23.3534 6.40137 23.7458C6.76396 24.1293 7.23174 24.3122 7.76074 24.3123H31.9912C32.5208 24.3123 32.9875 24.1268 33.3486 23.7468V23.7458C33.7197 23.3534 33.875 22.8335 33.875 22.2546V17.1921C33.875 16.6316 33.715 16.129 33.3574 15.7322C32.9988 15.3343 32.5297 15.1355 31.9912 15.1355H16.3066V4.10132H10.875Z" fill="#CE5425" stroke="#CE5425"/>
</svg>
