<svg width="40" height="41" viewBox="0 0 40 41" fill="none" xmlns="http://www.w3.org/2000/svg">
<path d="M11.6666 27.4013V10.898L9.11664 7.50466C8.78441 7.05688 8.74108 6.58577 8.98664 6.09132C9.23219 5.59688 9.63442 5.35021 10.1933 5.35132H27.0283C27.5683 5.35132 28.0277 5.54077 28.4066 5.91966C28.7855 6.29854 28.9744 6.75743 28.9733 7.29632V10.3513H32.3066C33.0477 10.3513 33.6816 10.6152 34.2083 11.143C34.735 11.6708 34.9989 12.3041 35 13.043V21.3763C35 22.1174 34.7361 22.7513 34.2083 23.278C33.6805 23.8047 33.0472 24.0685 32.3083 24.0697H28.975V27.403C28.975 28.143 28.7111 28.7763 28.1833 29.303C27.6566 29.8308 27.0233 30.0947 26.2833 30.0947H14.3583C13.6172 30.0947 12.9833 29.8313 12.4566 29.3047C11.93 28.7769 11.6666 28.1424 11.6666 27.4013ZM14.36 28.4263H26.2816C26.5816 28.4263 26.8272 28.3302 27.0183 28.138C27.2116 27.9458 27.3083 27.7002 27.3083 27.4013V7.01799H10.8L13.3333 10.3063V27.403C13.3333 27.7019 13.4294 27.9474 13.6216 28.1397C13.8139 28.3319 14.06 28.428 14.36 28.428M28.975 22.403H32.3083C32.6072 22.403 32.8527 22.3069 33.045 22.1147C33.2372 21.9224 33.3333 21.6769 33.3333 21.378V13.0447C33.3333 12.7447 33.2372 12.4985 33.045 12.3063C32.8527 12.1141 32.6072 12.018 32.3083 12.018H28.975V22.403ZM22.82 9.96632C22.3933 9.96632 22.0305 10.1163 21.7316 10.4163C21.4327 10.7163 21.2827 11.0791 21.2816 11.5047V23.9413C21.2816 24.3691 21.4316 24.7324 21.7316 25.0313C22.0316 25.3302 22.3944 25.4797 22.82 25.4797C23.2455 25.4797 23.6089 25.3297 23.91 25.0297C24.2111 24.7297 24.3611 24.3669 24.36 23.9413V11.5047C24.36 11.078 24.21 10.7152 23.91 10.4163C23.61 10.1174 23.2466 9.96743 22.82 9.96632ZM7.49997 35.3513C7.2633 35.3513 7.06553 35.2713 6.90664 35.1113C6.74775 34.9513 6.66775 34.753 6.66664 34.5163C6.66553 34.2797 6.74553 34.0819 6.90664 33.923C7.06775 33.7641 7.26553 33.6847 7.49997 33.6847H32.5C32.7366 33.6847 32.9344 33.7647 33.0933 33.9247C33.2522 34.0847 33.3322 34.283 33.3333 34.5197C33.3344 34.7563 33.2544 34.9541 33.0933 35.113C32.9322 35.2719 32.7344 35.3513 32.5 35.3513H7.49997Z" fill="#CE5425"/>
</svg>
