<svg width="40" height="41" viewBox="0 0 40 41" fill="none" xmlns="http://www.w3.org/2000/svg">
<g clip-path="url(#clip0_1_515)">
<path d="M30 1.77991H10C7.72673 1.77991 5.54656 2.68297 3.9391 4.29042C2.33165 5.89788 1.42859 8.07805 1.42859 10.3513V30.3513C1.42859 32.6246 2.33165 34.8048 3.9391 36.4123C5.54656 38.0197 7.72673 38.9228 10 38.9228H30C32.2733 38.9228 34.4535 38.0197 36.0609 36.4123C37.6684 34.8048 38.5714 32.6246 38.5714 30.3513V10.3513C38.5714 8.07805 37.6684 5.89788 36.0609 4.29042C34.4535 2.68297 32.2733 1.77991 30 1.77991Z" stroke="#CE5425" stroke-width="2" stroke-linecap="round" stroke-linejoin="round"/>
<path d="M14.8829 30.3913V22.0256M14.8829 22.0256V10.3113H23.9829C25.1195 10.3113 26.2096 10.7628 27.0133 11.5665C27.8171 12.3703 28.2686 13.4604 28.2686 14.597V17.7399C28.2686 18.8765 27.8171 19.9666 27.0133 20.7703C26.2096 21.574 25.1195 22.0256 23.9829 22.0256H14.8829Z" stroke="#CE5425" stroke-width="2" stroke-linecap="round" stroke-linejoin="round"/>
</g>
<defs>
<clipPath id="clip0_1_515">
<rect width="40" height="40" fill="white" transform="translate(0 0.351318)"/>
</clipPath>
</defs>
</svg>
