<svg width="40" height="41" viewBox="0 0 40 41" fill="none" xmlns="http://www.w3.org/2000/svg">
<g clip-path="url(#clip0_1_482)">
<path d="M29.3667 21.618C29.3667 20.2742 28.8328 18.9855 27.8827 18.0353C26.9325 17.0851 25.6438 16.5513 24.3 16.5513H9.09999C7.75623 16.5513 6.4675 17.0851 5.51732 18.0353C4.56713 18.9855 4.03333 20.2742 4.03333 21.618V27.9513C4.03333 30.9748 5.23439 33.8744 7.37231 36.0123C9.51022 38.1502 12.4099 39.3513 15.4333 39.3513H17.9667C20.9901 39.3513 23.8898 38.1502 26.0277 36.0123C28.1656 33.8744 29.3667 30.9748 29.3667 27.9513V21.618ZM29.3667 21.618H31.9C33.2438 21.618 34.5325 22.1518 35.4827 23.102C36.4328 24.0522 36.9667 25.3409 36.9667 26.6847C36.9667 28.0284 36.4328 29.3171 35.4827 30.2673C34.5325 31.2175 33.2438 31.7513 31.9 31.7513H29.3667M14.1667 11.4847V1.35132M19.2333 11.4847V6.41798" stroke="#CE5425" stroke-width="2" stroke-linecap="round" stroke-linejoin="round"/>
</g>
<defs>
<clipPath id="clip0_1_482">
<rect width="40" height="40" fill="white" transform="translate(0 0.351318)"/>
</clipPath>
</defs>
</svg>
